<svg xmlns="http://www.w3.org/2000/svg" width="1200" height="630" viewBox="0 0 1200 630">
  <defs>
    <linearGradient id="bg" x1="0%" y1="0%" x2="100%" y2="100%">
      <stop offset="0%" style="stop-color:#0284c7;stop-opacity:1" />
      <stop offset="50%" style="stop-color:#0ea5e9;stop-opacity:1" />
      <stop offset="100%" style="stop-color:#38bdf8;stop-opacity:1" />
    </linearGradient>
    <linearGradient id="card" x1="0%" y1="0%" x2="0%" y2="100%">
      <stop offset="0%" style="stop-color:#ffffff;stop-opacity:0.15" />
      <stop offset="100%" style="stop-color:#ffffff;stop-opacity:0.05" />
    </linearGradient>
  </defs>

  <!-- Background gradient -->
  <rect width="1200" height="630" fill="url(#bg)" />

  <!-- Decorative circles -->
  <circle cx="100" cy="100" r="200" fill="white" opacity="0.05" />
  <circle cx="1100" cy="530" r="250" fill="white" opacity="0.05" />
  <circle cx="900" cy="80" r="120" fill="white" opacity="0.03" />

  <!-- Card background -->
  <rect x="80" y="80" width="1040" height="470" rx="32" fill="url(#card)" stroke="white" stroke-opacity="0.2" stroke-width="2" />

  <!-- Calendar icon -->
  <g transform="translate(520, 140)">
    <!-- Calendar body -->
    <rect x="0" y="20" width="160" height="130" rx="20" fill="white" opacity="0.95"/>
    <!-- Calendar header -->
    <rect x="0" y="20" width="160" height="45" rx="20" fill="#0284c7"/>
    <rect x="0" y="45" width="160" height="20" fill="#0284c7"/>
    <!-- Calendar pins -->
    <rect x="40" y="8" width="12" height="30" rx="6" fill="white"/>
    <rect x="108" y="8" width="12" height="30" rx="6" fill="white"/>
    <!-- Calendar dots/events -->
    <circle cx="50" cy="95" r="8" fill="#0ea5e9" opacity="0.6"/>
    <circle cx="80" cy="95" r="8" fill="#38bdf8"/>
    <circle cx="110" cy="95" r="8" fill="#0ea5e9" opacity="0.6"/>
    <circle cx="50" cy="125" r="8" fill="#38bdf8"/>
    <circle cx="80" cy="125" r="8" fill="#0ea5e9" opacity="0.6"/>
    <circle cx="110" cy="125" r="8" fill="#7dd3fc"/>
  </g>

  <!-- Emoji decorations -->
  <text x="200" y="200" font-size="48" opacity="0.3">🎭</text>
  <text x="950" y="180" font-size="40" opacity="0.3">🎵</text>
  <text x="180" y="450" font-size="36" opacity="0.3">🎪</text>
  <text x="1000" y="430" font-size="42" opacity="0.3">🎬</text>

  <!-- Title -->
  <text x="600" y="370" text-anchor="middle" font-family="system-ui, -apple-system, 'Segoe UI', sans-serif" font-size="72" font-weight="800" fill="white" letter-spacing="-1">
    Agenda Maceió
  </text>

  <!-- Subtitle -->
  <text x="600" y="420" text-anchor="middle" font-family="system-ui, -apple-system, 'Segoe UI', sans-serif" font-size="28" fill="white" opacity="0.9">
    Eventos, Shows e Cultura na Capital Alagoana
  </text>

  <!-- Divider line -->
  <rect x="450" y="445" width="300" height="3" rx="2" fill="white" opacity="0.4" />

  <!-- URL -->
  <text x="600" y="495" text-anchor="middle" font-family="system-ui, -apple-system, 'Segoe UI', sans-serif" font-size="22" fill="white" opacity="0.7">
    agenda.maceio.br
  </text>
</svg>
